<svg width="1242" height="898" xmlns="http://www.w3.org/2000/svg" xmlns:xlink="http://www.w3.org/1999/xlink" xml:space="preserve" overflow="hidden"><g transform="translate(-1604 -797)"><g><path d="M1653.53 1289.51C1649.58 1158.3 1731.93 813.404 1873.99 864.047 2016.05 914.69 2360.98 1578.18 2505.87 1593.37 2650.76 1608.56 2864.67 960.692 2743.32 955.196 2621.96 949.699 1951.58 1584.13 1777.75 1560.39 1603.92 1536.66 1569.49 792.711 1700.34 812.767 1831.19 832.824 2380.37 1676.54 2562.85 1680.73 2745.34 1684.93 2906.13 842.815 2795.27 837.916 2684.4 833.018 2087.95 1576.08 1897.66 1651.34 1707.37 1726.61 1657.47 1420.73 1653.53 1289.51Z" stroke="#39FF14" stroke-width="27.5" stroke-linecap="butt" stroke-linejoin="miter" stroke-miterlimit="8" stroke-opacity="1" fill="none" fill-rule="evenodd"/></g></g></svg>