<svg width="1623" height="468" xmlns="http://www.w3.org/2000/svg" xmlns:xlink="http://www.w3.org/1999/xlink" xml:space="preserve" overflow="hidden"><g transform="translate(-1521 -1003)"><g><text fill="#0E2841" fill-opacity="1" font-family="Arial,Arial_MSFontService,sans-serif" font-style="normal" font-variant="normal" font-weight="400" font-stretch="normal" font-size="220" text-anchor="start" direction="ltr" writing-mode="lr-tb" unicode-bidi="normal" text-decoration="none" transform="matrix(1 0 0 1 1918.4 1288)">hackframe.</text><path d="M1539.99 1224.08C1538.8 1189.14 1560.34 1097.2 1598.23 1110.53 1636.11 1123.86 1728.71 1300.16 1767.31 1304.04 1805.91 1307.93 1862.15 1135.16 1829.83 1133.83 1797.51 1132.5 1619.69 1302.2 1573.38 1296.08 1527.06 1289.95 1517.06 1091.87 1551.93 1097.07 1586.79 1102.26 1733.98 1326.33 1782.58 1327.24 1831.19 1328.16 1873.06 1103.72 1843.53 1102.54 1814.01 1101.36 1656 1299.91 1605.41 1320.16 1554.82 1340.42 1541.19 1259.02 1539.99 1224.08Z" stroke="#39FF14" stroke-width="10.3125" stroke-linecap="butt" stroke-linejoin="miter" stroke-miterlimit="8" stroke-opacity="1" fill="none" fill-rule="evenodd"/></g></g></svg>