<svg width="1617" height="468" xmlns="http://www.w3.org/2000/svg" xmlns:xlink="http://www.w3.org/1999/xlink" xml:space="preserve" overflow="hidden"><g transform="translate(-1540 -595)"><g><text fill="#FFFFFF" fill-opacity="1" font-family="Arial,Arial_MSFontService,sans-serif" font-style="normal" font-variant="normal" font-weight="400" font-stretch="normal" font-size="220" text-anchor="start" direction="ltr" writing-mode="lr-tb" unicode-bidi="normal" text-decoration="none" transform="matrix(1 0 0 1 1934.05 878)">hackframe.</text><path d="M1555.65 813.825C1554.45 778.886 1576 686.949 1613.88 700.277 1651.77 713.604 1744.37 889.906 1782.97 893.79 1821.57 897.673 1877.81 724.906 1845.49 723.578 1813.16 722.25 1635.35 891.948 1589.03 885.821 1542.71 879.694 1532.71 681.62 1567.58 686.815 1602.45 692.01 1749.64 916.078 1798.24 916.99 1846.84 917.902 1888.72 693.469 1859.19 692.288 1829.66 691.108 1671.66 889.651 1621.07 909.907 1570.48 930.163 1556.85 848.763 1555.65 813.825Z" stroke="#39FF14" stroke-width="10.3125" stroke-linecap="butt" stroke-linejoin="miter" stroke-miterlimit="8" stroke-opacity="1" fill="none" fill-rule="evenodd"/></g></g></svg>