<svg width="1925" height="468" xmlns="http://www.w3.org/2000/svg" xmlns:xlink="http://www.w3.org/1999/xlink" xml:space="preserve" overflow="hidden"><g transform="translate(-1375 -1608)"><g><text fill="#0E2841" fill-opacity="1" font-family="Arial,Arial_MSFontService,sans-serif" font-style="normal" font-variant="normal" font-weight="400" font-stretch="normal" font-size="220" text-anchor="start" direction="ltr" writing-mode="lr-tb" unicode-bidi="normal" text-decoration="none" transform="matrix(1 0 0 1 1772.18 1891)">mixedsignal.io</text><path d="M1393.78 1837.08C1392.58 1802.14 1414.12 1710.21 1452.01 1723.53 1489.89 1736.86 1582.49 1913.16 1621.09 1917.05 1659.69 1920.93 1715.93 1748.16 1683.61 1746.84 1651.29 1745.51 1473.47 1915.21 1427.16 1909.08 1380.84 1902.95 1370.84 1704.88 1405.71 1710.07 1440.58 1715.27 1587.76 1939.34 1636.37 1940.25 1684.97 1941.16 1726.84 1716.73 1697.31 1715.55 1667.79 1714.37 1509.78 1912.91 1459.19 1933.17 1408.6 1953.42 1394.97 1872.02 1393.78 1837.08Z" stroke="#39FF14" stroke-width="10.3125" stroke-linecap="butt" stroke-linejoin="miter" stroke-miterlimit="8" stroke-opacity="1" fill="none" fill-rule="evenodd"/></g></g></svg>