<svg width="1925" height="468" xmlns="http://www.w3.org/2000/svg" xmlns:xlink="http://www.w3.org/1999/xlink" xml:space="preserve" overflow="hidden"><g transform="translate(-1375 -1897)"><g><text fill="#FFFFFF" fill-opacity="1" font-family="Arial,Arial_MSFontService,sans-serif" font-style="normal" font-variant="normal" font-weight="400" font-stretch="normal" font-size="220" text-anchor="start" direction="ltr" writing-mode="lr-tb" unicode-bidi="normal" text-decoration="none" transform="matrix(1 0 0 1 1772.18 2180)">mixedsignal.io</text><path d="M1393.78 2126.14C1392.58 2091.2 1414.12 1999.26 1452.01 2012.59 1489.89 2025.92 1582.49 2202.22 1621.09 2206.1 1659.69 2209.99 1715.93 2037.22 1683.61 2035.89 1651.29 2034.56 1473.47 2204.26 1427.16 2198.14 1380.84 2192.01 1370.84 1993.93 1405.71 1999.13 1440.58 2004.32 1587.76 2228.39 1636.37 2229.3 1684.97 2230.22 1726.84 2005.78 1697.31 2004.6 1667.79 2003.42 1509.78 2201.97 1459.19 2222.22 1408.6 2242.48 1394.97 2161.08 1393.78 2126.14Z" stroke="#39FF14" stroke-width="10.3125" stroke-linecap="butt" stroke-linejoin="miter" stroke-miterlimit="8" stroke-opacity="1" fill="none" fill-rule="evenodd"/></g></g></svg>